# xmcd
#
# Track frame offsets:
#	150
#	18720
#	34620
#	60675
#	79206
#	97153
#	116027
#	135370
#	148611
#	166185
#	181603
#	198728
#	214295
#	234044
#	253141
#
# Disc length: 3636 seconds
#
# Revision: 0
# Processed by: cddbd v1.5.2PL0 Copyright (c) Steve Scherf et al.
# Submitted via: EasyCDDAExtractor 2010.6.0.0
#
DISCID=d10e320f
DTITLE=Thopson, Randy - Collected (2012)
DYEAR=2012
DGENRE=Country
TTITLE0=Songbird
TTITLE1=Unknown zone
TTITLE2=Don't you remember
TTITLE3=Goin' down to Lynchburg Town
TTITLE4=Heart of Stone
TTITLE5=Ol' 97
TTITLE6=Rocksalt and nails
TTITLE7=You can't talk to me like that
TTITLE8=Twang this
TTITLE9=That's not me
TTITLE10=One guitar
TTITLE11=Wearin' Blue
TTITLE12=Sound of the rain
TTITLE13=Molly and Tenbrooks
TTITLE14=Bring on down the rain
EXTD=
EXTT0=
EXTT1=
EXTT2=
EXTT3=
EXTT4=
EXTT5=
EXTT6=
EXTT7=
EXTT8=
EXTT9=
EXTT10=
EXTT11=
EXTT12=
EXTT13=
EXTT14=
PLAYORDER=
